G04 EAGLE Gerber RS-274X export*
G75*
%MOMM*%
%FSLAX34Y34*%
%LPD*%
%INSolderpaste Bottom*%
%IPPOS*%
%AMOC8*
5,1,8,0,0,1.08239X$1,22.5*%
G01*
%ADD10R,1.300000X1.500000*%
%ADD11R,1.500000X1.300000*%
%ADD12R,1.525000X0.650000*%
%ADD13R,1.800000X2.700000*%
%ADD14R,1.600000X2.700000*%
%ADD15R,1.475000X0.450000*%
%ADD16R,2.200000X0.600000*%
%ADD17R,1.300000X1.600000*%
%ADD18R,1.600000X1.300000*%


D10*
X1029360Y1313180D03*
X1048360Y1313180D03*
X1000100Y1168400D03*
X981100Y1168400D03*
X1282040Y1313180D03*
X1263040Y1313180D03*
X1311300Y1168400D03*
X1330300Y1168400D03*
X962000Y1231900D03*
X943000Y1231900D03*
X1266800Y1168400D03*
X1247800Y1168400D03*
D11*
X1041400Y1006500D03*
X1041400Y1025500D03*
D10*
X988720Y872490D03*
X1007720Y872490D03*
X1039520Y946150D03*
X1058520Y946150D03*
D11*
X1003300Y1006500D03*
X1003300Y1025500D03*
D10*
X1499718Y1260856D03*
X1480718Y1260856D03*
X1527708Y1402842D03*
X1546708Y1402842D03*
X1976730Y843280D03*
X1957730Y843280D03*
X1622450Y947420D03*
X1641450Y947420D03*
D11*
X1115060Y984910D03*
X1115060Y1003910D03*
D10*
X1218590Y947420D03*
X1237590Y947420D03*
X1007770Y913130D03*
X1026770Y913130D03*
D11*
X891540Y934060D03*
X891540Y915060D03*
D10*
X1880260Y1375410D03*
X1899260Y1375410D03*
D12*
X1195520Y984250D03*
X1195520Y971550D03*
X1195520Y958850D03*
X1195520Y946150D03*
X1141280Y946150D03*
X1141280Y958850D03*
X1141280Y971550D03*
X1141280Y984250D03*
D11*
X1206500Y882040D03*
X1206500Y901040D03*
D13*
X1266600Y381000D03*
X1222600Y381000D03*
X1222600Y330200D03*
X1266600Y330200D03*
D14*
X1258600Y457200D03*
X1230600Y457200D03*
D11*
X1270000Y288900D03*
X1270000Y269900D03*
X1259840Y525120D03*
X1259840Y506120D03*
D13*
X1362300Y381000D03*
X1406300Y381000D03*
X1406300Y330200D03*
X1362300Y330200D03*
D14*
X1370300Y457200D03*
X1398300Y457200D03*
D11*
X1363980Y288900D03*
X1363980Y269900D03*
X1371600Y525120D03*
X1371600Y506120D03*
D15*
X1870880Y222700D03*
X1870880Y216200D03*
X1870880Y209700D03*
X1870880Y203200D03*
X1870880Y196700D03*
X1870880Y190200D03*
X1870880Y183700D03*
X1812120Y183700D03*
X1812120Y190200D03*
X1812120Y196700D03*
X1812120Y203200D03*
X1812120Y209700D03*
X1812120Y216200D03*
X1812120Y222700D03*
D10*
X1707540Y220980D03*
X1726540Y220980D03*
X1707540Y190500D03*
X1726540Y190500D03*
D16*
X978500Y984250D03*
X926500Y958850D03*
X978500Y996950D03*
X978500Y971550D03*
X978500Y958850D03*
X926500Y971550D03*
X926500Y946150D03*
X926500Y933450D03*
X978500Y933450D03*
X926500Y908050D03*
X978500Y946150D03*
X978500Y920750D03*
X926500Y920750D03*
X978500Y908050D03*
X926500Y984250D03*
X926500Y996950D03*
D17*
X1811180Y154940D03*
X1831180Y154940D03*
D18*
X1892300Y170340D03*
X1892300Y190340D03*
X1790700Y223680D03*
X1790700Y243680D03*
D10*
X1278230Y974090D03*
X1259230Y974090D03*
X1276960Y877570D03*
X1257960Y877570D03*
M02*
