G04 EAGLE Gerber RS-274X export*
G75*
%MOMM*%
%FSLAX34Y34*%
%LPD*%
%INSolderpaste Top*%
%IPPOS*%
%AMOC8*
5,1,8,0,0,1.08239X$1,22.5*%
G01*
%ADD10R,1.600000X2.700000*%
%ADD11R,1.300000X1.500000*%
%ADD12R,1.525000X0.650000*%
%ADD13R,1.475000X0.450000*%
%ADD14R,1.300000X1.600000*%
%ADD15R,2.700000X1.600000*%
%ADD16R,1.500000X1.300000*%
%ADD17R,0.650000X1.525000*%
%ADD18R,3.200000X1.800000*%
%ADD19R,2.700000X1.800000*%
%ADD20R,1.850000X3.450000*%
%ADD21R,3.450000X1.850000*%
%ADD22R,0.400000X1.200000*%


D10*
X1665000Y565150D03*
X1637000Y565150D03*
X1663730Y482600D03*
X1635730Y482600D03*
D11*
X1665580Y596900D03*
X1646580Y596900D03*
X1664310Y453390D03*
X1645310Y453390D03*
X1867510Y153670D03*
X1848510Y153670D03*
X1754480Y487680D03*
X1735480Y487680D03*
X1755800Y571500D03*
X1774800Y571500D03*
D12*
X1700080Y547370D03*
X1700080Y534670D03*
X1700080Y521970D03*
X1700080Y509270D03*
X1754320Y509270D03*
X1754320Y521970D03*
X1754320Y534670D03*
X1754320Y547370D03*
X1814380Y214630D03*
X1814380Y201930D03*
X1814380Y189230D03*
X1814380Y176530D03*
X1868620Y176530D03*
X1868620Y189230D03*
X1868620Y201930D03*
X1868620Y214630D03*
D13*
X1481920Y540200D03*
X1481920Y533700D03*
X1481920Y527200D03*
X1481920Y520700D03*
X1481920Y514200D03*
X1481920Y507700D03*
X1481920Y501200D03*
X1540680Y501200D03*
X1540680Y507700D03*
X1540680Y514200D03*
X1540680Y520700D03*
X1540680Y527200D03*
X1540680Y533700D03*
X1540680Y540200D03*
X1901020Y451300D03*
X1901020Y444800D03*
X1901020Y438300D03*
X1901020Y431800D03*
X1901020Y425300D03*
X1901020Y418800D03*
X1901020Y412300D03*
X1959780Y412300D03*
X1959780Y418800D03*
X1959780Y425300D03*
X1959780Y431800D03*
X1959780Y438300D03*
X1959780Y444800D03*
X1959780Y451300D03*
D14*
X1925160Y472440D03*
X1905160Y472440D03*
D15*
X1798570Y429992D03*
X1798570Y457992D03*
D10*
X1839950Y301498D03*
X1867950Y301498D03*
D14*
X1961040Y474980D03*
X1981040Y474980D03*
X1958180Y391160D03*
X1938180Y391160D03*
D15*
X1849120Y455900D03*
X1849120Y483900D03*
D11*
X1812900Y482600D03*
X1793900Y482600D03*
D15*
X1927860Y311180D03*
X1927860Y283180D03*
D16*
X1892300Y301600D03*
X1892300Y282600D03*
D11*
X2054200Y419100D03*
X2035200Y419100D03*
D10*
X2026890Y386080D03*
X2054890Y386080D03*
D17*
X2025650Y582480D03*
X2038350Y582480D03*
X2051050Y582480D03*
X2063750Y582480D03*
X2063750Y636720D03*
X2051050Y636720D03*
X2038350Y636720D03*
X2025650Y636720D03*
D16*
X2085340Y582320D03*
X2085340Y601320D03*
X2004060Y619100D03*
X2004060Y600100D03*
D11*
X2054200Y444500D03*
X2035200Y444500D03*
D10*
X2026890Y476250D03*
X2054890Y476250D03*
D17*
X1911350Y582480D03*
X1924050Y582480D03*
X1936750Y582480D03*
X1949450Y582480D03*
X1949450Y636720D03*
X1936750Y636720D03*
X1924050Y636720D03*
X1911350Y636720D03*
D16*
X1971040Y582320D03*
X1971040Y601320D03*
X1887220Y616560D03*
X1887220Y597560D03*
D11*
X1812900Y533400D03*
X1793900Y533400D03*
D14*
X1793400Y508000D03*
X1813400Y508000D03*
D11*
X1863700Y241300D03*
X1844700Y241300D03*
X1927200Y203200D03*
X1908200Y203200D03*
D14*
X1907700Y177800D03*
X1927700Y177800D03*
D11*
X1528420Y218440D03*
X1509420Y218440D03*
X1762100Y226060D03*
X1743100Y226060D03*
X1762100Y160020D03*
X1743100Y160020D03*
D10*
X1761520Y124460D03*
X1733520Y124460D03*
X1761520Y262890D03*
X1733520Y262890D03*
D18*
X1579880Y162500D03*
X1579880Y218500D03*
D19*
X1651000Y168500D03*
X1651000Y212500D03*
D11*
X1609700Y538480D03*
X1590700Y538480D03*
X1609700Y513080D03*
X1590700Y513080D03*
D16*
X1653540Y535280D03*
X1653540Y516280D03*
X1765300Y202540D03*
X1765300Y183540D03*
D20*
X1965960Y200660D03*
X1854200Y520700D03*
X1155700Y889000D03*
D21*
X1600200Y596900D03*
X1582420Y127000D03*
X1579880Y256540D03*
X1600200Y406400D03*
X1183640Y1108710D03*
D22*
X1322220Y375260D03*
X1315720Y375260D03*
X1309220Y375260D03*
X1309220Y356260D03*
X1322220Y356260D03*
D20*
X2039620Y200660D03*
X1943100Y520700D03*
D21*
X1181100Y825500D03*
D14*
X1500980Y561340D03*
X1480980Y561340D03*
X1544160Y480060D03*
X1524160Y480060D03*
X1544160Y561340D03*
X1524160Y561340D03*
M02*
