M48
;GenerationSoftware,Autodesk,EAGLE,9.6.2*%
;CreationDate,2025-07-01T13:08:44Z*%
FMAT,2
ICI,OFF
METRIC,TZ,000.000
T14C0.508
T13C0.600
T12C0.740
T11C0.800
T10C0.813
T9C1.016
T8C1.200
T7C1.240
T6C1.320
T5C1.321
T4C1.600
T3C1.800
T2C2.600
T1C3.000
%
G90
M71
T1
X131572Y63540
X131572Y9840
X207010Y140970
X87630Y140970
X207010Y-3810
X87630Y-3810
T2
X200644Y110863
X177816Y133477
X200644Y133477
X177816Y110863
T3
X141272Y70940
X131572Y72390
X131572Y990
T4
X169520Y130150
X169520Y123850
X163220Y123850
X163220Y130150
T5
X114122Y136144
X113792Y330
X113792Y5334
X113792Y10338
X119126Y136144
X124130Y136144
T6
X150124Y129337
X152674Y129337
X147574Y129337
T7
X128270Y120650
X130810Y120650
X102870Y120650
X125730Y120650
X100330Y120650
X97790Y120650
T8
X166370Y127000
T9
X95504Y59690
X95504Y64770
X95504Y62230
T10
X100838Y127254
X147980Y121158
X150012Y121158
X150647Y136093
X133096Y113538
X131064Y113538
X126238Y127254
X128270Y127254
X100330Y113538
X98298Y113538
X102870Y127254
X152679Y136093
T11
X195580Y81280
X200660Y96520
X200660Y81280
X164719Y114554
X146939Y91694
X149479Y91694
X152019Y91694
X154559Y91694
X157099Y91694
X159639Y91694
X198120Y81280
X162179Y91694
X164719Y91694
X162179Y114554
X159639Y114554
X157099Y114554
X154559Y114554
X152019Y114554
X185420Y134620
X187960Y134620
X190500Y134620
X193040Y134620
X149479Y114554
X203148Y106517
X196648Y102017
X203148Y102017
X146939Y114554
X198120Y96520
X195580Y96520
X193040Y96520
X190500Y96520
X196648Y106517
X187960Y96520
X185420Y96520
X185420Y81280
X187960Y81280
X190500Y81280
X193040Y81280
T12
X128016Y82931
X130683Y93599
X128143Y93599
X133223Y93599
X133096Y82931
X130556Y82931
X88773Y119380
X88773Y121920
X88773Y124460
X116840Y119380
X116840Y121920
X116840Y124460
T13
X210820Y58420
X210820Y60960
X210820Y63500
X210820Y66040
X210820Y68580
X210820Y71120
X210820Y73660
X210820Y76200
X210820Y78740
X210820Y81280
X210820Y83820
X210820Y86360
X210820Y88900
X210820Y91440
X210820Y93980
X210820Y96520
X210820Y99060
X210820Y101600
X210820Y104140
X210820Y106680
X210820Y109220
X210820Y111760
X210820Y114300
X210820Y116840
X210820Y119380
X210820Y121920
X210820Y124460
X210820Y127000
X210820Y129540
X210820Y132080
X210820Y134620
X210820Y137160
X210820Y139700
X205740Y144780
X203200Y144780
X200660Y144780
X198120Y144780
X195580Y144780
X193040Y144780
X190500Y144780
X187960Y144780
X185420Y144780
X182880Y144780
X180340Y144780
X177800Y144780
X175260Y144780
X172720Y144780
X170180Y144780
X167640Y144780
X165100Y144780
X162560Y144780
X160020Y144780
X157480Y144780
X154940Y144780
X152400Y144780
X149860Y144780
X147320Y144780
X144780Y144780
X142240Y144780
X139700Y144780
X137160Y144780
X134620Y144780
X132080Y144780
X129540Y144780
X127000Y144780
X124460Y144780
X121920Y144780
X119380Y144780
X116840Y144780
X114300Y144780
X111760Y144780
X109220Y144780
X106680Y144780
X104140Y144780
X101600Y144780
X99060Y144780
X96520Y144780
X93980Y144780
X91440Y144780
X88900Y144780
X86360Y144780
X83820Y139700
X83820Y137160
X83820Y-7620
X86360Y-7620
X106680Y-7620
X109220Y-7620
X111760Y-7620
X114300Y-7620
X116840Y-7620
X119380Y-7620
X121920Y-7620
X124460Y-7620
X127000Y-7620
X129540Y-7620
X132080Y-7620
X134620Y-7620
X137160Y-7620
X83820Y35560
X142240Y-7620
X144780Y-7620
X147320Y-7620
X149860Y-7620
X152400Y-7620
X154940Y-7620
X157480Y-7620
X160020Y-7620
X162560Y-7620
X165100Y-7620
X167640Y-7620
X170180Y-7620
X172720Y-7620
X175260Y-7620
X177800Y-7620
X180340Y-7620
X182880Y-7620
X185420Y-7620
X187960Y-7620
X190500Y-7620
X193040Y-7620
X195580Y-7620
X198120Y-7620
X200660Y-7620
X203200Y-7620
X205740Y-7620
X208280Y-7620
X210820Y-7620
X83820Y142240
X83820Y144780
X208280Y144780
X210820Y144780
X210820Y142240
X109601Y98425
X151130Y77216
X188722Y66040
X200406Y66040
X162560Y66040
X154940Y66040
X154432Y57785
X182626Y26924
X100838Y93345
X121920Y100711
X121920Y92710
X149860Y74930
X170180Y45720
X189230Y11430
X160020Y47625
X196850Y55880
X208788Y55880
X151384Y12954
X97790Y82550
X90170Y60960
X144277Y58397
X156972Y44704
X140081Y53391
X141316Y58420
X158496Y46101
X184912Y71882
X137160Y59690
X125730Y59690
X162179Y96774
X195834Y90170
X148082Y65913
X148082Y57912
X176530Y62230
X181610Y57150
X144780Y35560
X146050Y6350
X190500Y13970
X110998Y90043
X205105Y67691
X136398Y22860
X127000Y22860
X142860Y58420
X158750Y80660
X168021Y90043
X175260Y96520
X182768Y64770
X180041Y32512
X182880Y38100
X114681Y74803
X185420Y75438
X171196Y20574
X171831Y16256
X123190Y67310
X132080Y67310
X151384Y11938
X151384Y10922
X151384Y9906
X152146Y13716
X153568Y15164
X152832Y14478
X105410Y67310
X118110Y130810
X144780Y125730
X133350Y44450
X132080Y25400
X167640Y20574
X132080Y13970
X90170Y130810
X182880Y132080
X197968Y63856
X83820Y134620
X83820Y132080
X83820Y129540
X83820Y127000
X83820Y124460
X83820Y121920
X83820Y119380
X83820Y116840
X83820Y114300
X83820Y111760
X83820Y109220
X83820Y106680
X83820Y104140
X83820Y101600
X83820Y99060
X83820Y96520
X83820Y93980
X83820Y91440
X83820Y88900
X83820Y86360
X83820Y83820
X83820Y81280
X83820Y78740
X83820Y76200
X83820Y73660
X83820Y71120
X83820Y68580
X83820Y66040
X83820Y63500
X83820Y60960
X83820Y58420
X83820Y55880
X83820Y53340
X83820Y50800
X83820Y48260
X83820Y45720
X83820Y43180
X83820Y40640
X83820Y38100
X83820Y33020
X83820Y30480
X83820Y27940
X83820Y25400
X139700Y-7620
X83820Y22860
X83820Y20320
X83820Y17780
X83820Y15240
X83820Y12700
X83820Y10160
X83820Y7620
X83820Y5080
X83820Y2540
X83820Y0
X83820Y-2540
X83820Y-5080
X88900Y-7620
X91440Y-7620
X93980Y-7620
X96520Y-7620
X99060Y-7620
X101600Y-7620
X104140Y-7620
X210820Y-5080
X210820Y-2540
X210820Y0
X210820Y2540
X210820Y5080
X210820Y7620
X210820Y10160
X210820Y12700
X210820Y15240
X210820Y17780
X210820Y20320
X210820Y22860
X210820Y25400
X210820Y27940
X210820Y30480
X210820Y33020
X210820Y35560
X210820Y38100
X210820Y40640
X210820Y43180
X210820Y45720
X210820Y48260
X210820Y50800
X210820Y53340
X210820Y55880
T14
X146939Y100584
X141859Y100584
X144399Y103124
X141859Y105664
X146939Y105664
M30